<svg width="26" height="26" viewBox="0 0 26 26" fill="none" xmlns="http://www.w3.org/2000/svg">
<path d="M26 13.0015C26 5.83747 20.1625 0 12.9985 0C5.83441 0 0 5.83747 0 13.0015C0 16.9475 1.79026 20.4972 4.57541 22.8832C4.60918 22.917 4.64295 22.9507 4.70744 22.9815C6.96137 24.873 9.84788 26 13.0322 26C16.1491 26 19.0356 24.873 21.2895 23.049C21.4215 23.0152 21.5229 22.917 21.5874 22.8156C24.2773 20.3959 26 16.9137 26 13.0015ZM1.19451 13.0015C1.19451 6.50077 6.50077 1.19451 13.0015 1.19451C19.5023 1.19451 24.8085 6.50077 24.8085 13.0015C24.8085 16.1859 23.5495 19.0693 21.4921 21.1943C21.1605 19.6343 20.1656 16.9812 17.1133 15.2586C17.8103 14.3957 18.2065 13.2687 18.2065 12.0742C18.2065 9.22146 15.885 6.89998 13.0322 6.89998C10.1795 6.89998 7.85803 9.22146 7.85803 12.0742C7.85803 13.2687 8.28792 14.3619 8.95122 15.2586C5.87128 16.9812 4.87636 19.6344 4.57846 21.1943C2.48729 19.1031 1.19451 16.1859 1.19451 13.0015ZM9.02183 12.1049C9.02183 9.91543 10.8121 8.12517 13.0015 8.12517C15.191 8.12517 16.9812 9.91543 16.9812 12.1049C16.9812 14.2943 15.191 16.0846 13.0015 16.0846C10.8121 16.0846 9.02183 14.2943 9.02183 12.1049ZM5.63788 22.2199C5.70543 21.2588 6.23358 18.0069 9.81717 16.1828C10.7138 16.8799 11.807 17.276 13.0015 17.276C14.196 17.276 15.323 16.8461 16.2197 16.1491C19.7694 17.9731 20.3314 21.1575 20.4327 22.1862C18.4091 23.8106 15.8236 24.8055 13.0384 24.8055C10.2164 24.8085 7.6615 23.8474 5.63788 22.2199Z" fill="#EC3892"/>
</svg>
