<svg width="25" height="25" viewBox="0 0 25 25" fill="none" xmlns="http://www.w3.org/2000/svg">
<path d="M25 12.5C25 5.59657 19.4034 0 12.5 0C5.59657 0 0 5.59657 0 12.5C0 19.4034 5.59657 25 12.5 25C19.4034 25 25 19.4034 25 12.5ZM1.13636 12.5C1.13636 6.22386 6.22386 1.13636 12.5 1.13636C18.7761 1.13636 23.8636 6.22386 23.8636 12.5C23.8636 18.7761 18.7761 23.8636 12.5 23.8636C6.22386 23.8636 1.13636 18.7761 1.13636 12.5Z" fill="#EC3892"/>
<path d="M12.9789 19.7147V12.5H15.3596L15.7357 10.1091H12.9789V8.91024C12.9789 8.28639 13.1835 7.69092 14.0789 7.69092H15.8687V5.30457H13.3278C11.1914 5.30457 10.6085 6.71135 10.6085 8.66139V10.108H9.14258V12.5H10.6085V19.7147H12.9789Z" fill="#EC3892"/>
</svg>
