<svg width="72" height="72" viewBox="0 0 72 72" fill="none" xmlns="http://www.w3.org/2000/svg">
<path d="M32.0809 50.108C32.0528 49.5257 31.5609 49.0764 30.9753 49.1047C30.393 49.1329 29.9438 49.6279 29.972 50.2103L30.6907 65.0366C30.7181 65.6017 31.1848 66.0412 31.7444 66.0412C31.7615 66.0412 31.7788 66.0408 31.7963 66.04C32.3786 66.0117 32.8278 65.5167 32.7996 64.9344L32.0809 50.108Z" fill="#EC3892"/>
<path d="M41.0248 49.1048C40.4387 49.0761 39.9476 49.526 39.9192 50.1082L39.2005 64.9345C39.1723 65.5167 39.6216 66.0117 40.2038 66.04C40.2213 66.0408 40.2386 66.0413 40.2559 66.0413C40.8154 66.0413 41.2821 65.6017 41.3094 65.0368L42.0282 50.2104C42.0563 49.6281 41.6071 49.1331 41.0248 49.1048Z" fill="#EC3892"/>
<path d="M24.2905 64.9855L23.1181 56.9261C23.034 56.3492 22.4987 55.9491 21.9214 56.0335C21.3446 56.1174 20.9448 56.653 21.0287 57.23L22.2011 65.2894C22.2775 65.8148 22.7287 66.1932 23.2444 66.1932C23.295 66.1932 23.3462 66.1895 23.3978 66.1821C23.9747 66.0981 24.3743 65.5625 24.2905 64.9855Z" fill="#EC3892"/>
<path d="M22.4105 52.0617L22.1338 50.1594C22.0498 49.5824 21.512 49.1826 20.9372 49.2667C20.3602 49.3506 19.9604 49.8863 20.0443 50.4632L20.3211 52.3656C20.3974 52.891 20.8487 53.2694 21.3644 53.2694C21.415 53.2694 21.4662 53.2658 21.5177 53.2583C22.0945 53.1744 22.4945 52.6387 22.4105 52.0617Z" fill="#EC3892"/>
<path d="M49.1682 62.3502C48.5922 62.2658 48.0554 62.6659 47.9716 63.2429L47.7182 64.9857C47.6342 65.5626 48.0339 66.0983 48.611 66.1822C48.6625 66.1897 48.7137 66.1934 48.7643 66.1934C49.28 66.1934 49.7312 65.8149 49.8076 65.2896L50.061 63.5468C50.1448 62.9698 49.7453 62.434 49.1682 62.3502Z" fill="#EC3892"/>
<path d="M51.0717 49.2667C50.4963 49.1826 49.9591 49.5824 49.8751 50.1594L48.6791 58.3817C48.5952 58.9585 48.9949 59.4943 49.5719 59.5783C49.6234 59.5857 49.6746 59.5894 49.7252 59.5894C50.241 59.5894 50.6921 59.211 50.7685 58.6856L51.9645 50.4632C52.0485 49.8863 51.6488 49.3505 51.0717 49.2667Z" fill="#EC3892"/>
<path d="M65.9451 38.0361H64.7453C64.7538 37.069 64.58 36.0453 64.2318 35.0561C63.9187 34.1662 63.482 33.3501 62.9561 32.6534V26.9565C62.9559 12.0926 50.8633 0 35.9992 0C21.1352 0 9.04284 12.0926 9.04284 26.9565V32.4415C9.04284 32.506 9.04959 32.5689 9.06056 32.6302C8.52661 33.3319 8.08378 34.1564 7.76709 35.0561C7.41891 36.0453 7.24509 37.0692 7.25367 38.0361H6.05386C4.15345 38.0361 2.60742 39.5821 2.60742 41.4825C2.60742 43.383 4.15359 44.929 6.05386 44.929H6.85669L13.6541 67.0573C14.5621 70.0137 17.2504 72 20.343 72H51.6555C54.7482 72 57.4364 70.0137 58.3444 67.0572L65.1421 44.929H65.9449C67.8453 44.929 69.3914 43.383 69.3914 41.4825C69.3915 39.5823 67.8453 38.0361 65.9451 38.0361ZM61.4276 34.1454C61.7549 34.6226 62.0339 35.1712 62.2402 35.7573C62.511 36.5266 62.645 37.3108 62.635 38.0363H56.3204C55.8213 36.0813 54.0372 34.6236 51.9399 34.6236C49.8428 34.6236 48.0587 36.0813 47.5595 38.0363H41.449C41.4392 37.3106 41.5732 36.5265 41.8439 35.7573C42.2438 34.6208 42.9159 33.623 43.6878 33.0197C43.861 32.8843 44.1108 32.7149 44.3963 32.5949C44.4033 32.5922 44.4106 32.5903 44.4176 32.5875C44.71 32.4688 44.9824 32.4248 45.2307 32.4554C45.2427 32.457 45.2546 32.4596 45.2666 32.4616C45.2954 32.4661 45.3241 32.4705 45.3522 32.4769C45.393 32.4865 45.4338 32.498 45.4743 32.5122C45.6065 32.5586 45.8922 32.6866 46.3204 33.021C46.6941 33.3128 47.2162 33.3197 47.5974 33.038C47.9787 32.7563 48.1253 32.2552 47.9563 31.8123C47.7766 31.3421 47.6737 30.9049 47.6737 30.6129C47.6737 30.4688 47.7039 30.3225 47.7607 30.1771C47.9707 29.9465 48.1563 29.6937 48.3156 29.4234C49.0419 28.7702 50.3353 28.266 51.9399 28.266C53.1357 28.266 54.2923 28.565 55.1167 29.0859C55.8067 29.5251 56.2062 30.0833 56.2062 30.6129C56.2062 30.951 56.0677 31.4812 55.8358 32.0313C55.6447 32.4841 55.7915 33.0086 56.1895 33.2968C56.5876 33.5848 57.1318 33.5602 57.5022 33.2373C58.0843 32.7299 58.4707 32.5612 58.6101 32.5122C59.2927 32.272 60.0222 32.727 60.3964 33.0196C60.5622 33.1493 60.7231 33.298 60.8781 33.4616C60.9539 33.7614 61.1572 34.0096 61.4276 34.1454ZM54.0766 38.0361H49.8031C50.207 37.2645 51.0166 36.7348 51.9398 36.7348C52.8631 36.7348 53.6729 37.2646 54.0766 38.0361ZM35.8972 34.6234C34.5331 34.6234 33.3018 35.2405 32.4697 36.2093C32.3877 35.8232 32.2803 35.4371 32.1461 35.0561C31.911 34.388 31.6067 33.761 31.247 33.1951C31.3552 33.1606 31.4592 33.1083 31.5544 33.038C31.9356 32.7565 32.0824 32.2553 31.9134 31.8125C31.7338 31.3419 31.6309 30.9047 31.6309 30.6128C31.6309 29.8776 32.3542 29.1399 33.5189 28.6872C33.5192 28.6871 33.5195 28.6871 33.5198 28.6869C34.2286 28.4116 35.0507 28.2659 35.897 28.2659C38.4113 28.2659 40.1633 29.5027 40.1633 30.6128C40.1633 30.9509 40.0248 31.481 39.7929 32.0311C39.6018 32.484 39.7486 33.0085 40.1466 33.2966C40.2786 33.3921 40.4268 33.4517 40.5793 33.479C40.2941 33.9684 40.0488 34.4977 39.8522 35.0561C39.695 35.5029 39.5732 35.9568 39.4877 36.4094C38.6586 35.3258 37.3532 34.6234 35.8972 34.6234ZM38.0341 38.0361H33.7606C34.1645 37.2645 34.9741 36.7348 35.8973 36.7348C36.8204 36.7348 37.6301 37.2646 38.0341 38.0361ZM27.3768 22.6143C25.0405 22.6143 23.1124 24.3955 22.8791 26.6712C21.9837 26.341 20.956 26.1547 19.8545 26.1547C19.7318 26.1547 19.6102 26.1577 19.4895 26.1622C19.4677 26.163 19.4459 26.1644 19.4241 26.1654C19.3166 26.1702 19.21 26.1768 19.1043 26.1851C19.0944 26.1859 19.0847 26.1868 19.0749 26.1875C18.3071 26.2502 17.585 26.4042 16.9311 26.6349C16.8149 25.7662 16.9325 24.7379 17.2808 23.748C18.1157 21.3763 19.8655 20.1347 20.911 20.503C21.0432 20.5495 21.3291 20.6775 21.7573 21.0119C22.131 21.3037 22.6531 21.3103 23.0343 21.0288C23.4156 20.7471 23.5624 20.2459 23.3932 19.8031C23.2135 19.3328 23.1105 18.8958 23.1105 18.6037C23.1105 17.4936 24.8626 16.2568 27.3768 16.2568C29.8911 16.2568 31.6431 17.4936 31.6431 18.6037C31.6431 18.9418 31.5046 19.4719 31.2727 20.022C31.0816 20.4749 31.2284 20.9994 31.6264 21.2875C32.0245 21.5755 32.5687 21.5509 32.9391 21.228C33.1485 21.0455 33.3324 20.9069 33.4888 20.8018C33.4759 20.8198 33.4638 20.8385 33.451 20.8567C33.4151 20.9074 33.3797 20.9586 33.3448 21.0106C33.3234 21.0424 33.3023 21.0745 33.2814 21.1068C33.2482 21.1577 33.2154 21.2092 33.1832 21.2612C33.162 21.2954 33.1409 21.3297 33.1201 21.3642C33.0892 21.4156 33.0586 21.4678 33.0285 21.5203C33.008 21.5561 32.9873 21.5921 32.9672 21.6284C32.938 21.6811 32.9094 21.7344 32.881 21.788C32.8615 21.8251 32.8417 21.862 32.8225 21.8995C32.7947 21.9541 32.7677 22.0094 32.7407 22.0648C32.7225 22.1022 32.7041 22.1393 32.6864 22.1771C32.6594 22.2348 32.6334 22.2931 32.6075 22.3516C32.5912 22.3882 32.5746 22.4245 32.5587 22.4615C32.5312 22.5257 32.505 22.5908 32.4787 22.656C32.4659 22.6879 32.4524 22.7194 32.4399 22.7514C32.4018 22.849 32.3651 22.9476 32.3301 23.0472C32.2953 23.146 32.2627 23.2452 32.2315 23.3445C32.2218 23.3752 32.2128 23.4062 32.2034 23.4371C32.1821 23.5072 32.1616 23.5772 32.142 23.6474C32.1325 23.6817 32.1232 23.7158 32.1141 23.7502C32.0952 23.8213 32.0774 23.8923 32.0602 23.9635C32.053 23.9933 32.0456 24.023 32.0387 24.0528C32.0158 24.1525 31.9942 24.2523 31.9748 24.352C31.9733 24.3602 31.972 24.3682 31.9705 24.3764C31.9529 24.468 31.937 24.5597 31.9225 24.6513C31.9176 24.6825 31.9132 24.7137 31.9086 24.7449C31.8983 24.8147 31.8888 24.8843 31.8802 24.9538C31.876 24.9875 31.872 25.0213 31.8682 25.0549C31.8602 25.1269 31.8533 25.1985 31.8473 25.2702C31.8449 25.2979 31.8421 25.3256 31.84 25.3531C31.8325 25.4513 31.8266 25.5492 31.8228 25.6465C31.8223 25.6603 31.8223 25.6738 31.8218 25.6875C31.819 25.7711 31.8175 25.8543 31.8172 25.937C31.8172 25.9681 31.8176 25.999 31.8179 26.0301C31.8186 26.0969 31.82 26.1634 31.8224 26.2297C31.8235 26.2619 31.8248 26.2939 31.8263 26.326C31.8266 26.331 31.8266 26.3361 31.8269 26.3412C31.4502 24.2257 29.5987 22.6143 27.3768 22.6143ZM29.7871 27.1358C29.7871 28.4649 28.7059 29.546 27.377 29.546C26.7654 29.546 26.2081 29.3153 25.7827 28.9385C25.6228 28.655 25.4224 28.3871 25.1874 28.1371C25.0472 27.8317 24.9669 27.4933 24.9669 27.1358C24.9669 25.8069 26.0482 24.7257 27.3771 24.7257C28.706 24.7257 29.7871 25.8069 29.7871 27.1358ZM31.9083 27.1121C31.9048 27.114 31.9016 27.1162 31.8979 27.1181C31.8978 27.0869 31.8964 27.0561 31.8955 27.025C31.8999 27.054 31.9035 27.0833 31.9083 27.1121ZM39.8967 27.1159C38.8099 26.512 37.4243 26.1547 35.8973 26.1547C35.2307 26.1547 34.5709 26.2257 33.9437 26.363C33.9436 26.3604 33.9432 26.3579 33.943 26.3554C33.9363 26.2651 33.9325 26.1731 33.9305 26.0803C33.93 26.0556 33.9301 26.0305 33.9298 26.0055C33.9293 25.9325 33.9301 25.8588 33.9323 25.7847C33.933 25.7593 33.9336 25.734 33.9347 25.7085C33.939 25.6129 33.9449 25.5165 33.9537 25.4192C33.9548 25.4071 33.9565 25.3949 33.9577 25.3828C33.966 25.2967 33.9764 25.2101 33.9882 25.1231C33.9921 25.0945 33.9963 25.0658 34.0005 25.0373C34.0126 24.957 34.0263 24.8764 34.0413 24.7957C34.0451 24.7753 34.0484 24.7551 34.0524 24.7347C34.0718 24.636 34.0936 24.5371 34.1177 24.4382C34.1237 24.4135 34.1303 24.3889 34.1367 24.3643C34.1564 24.2866 34.1775 24.2089 34.2 24.1314C34.2082 24.1027 34.2164 24.0742 34.2251 24.0455C34.2549 23.947 34.2863 23.8489 34.3207 23.7511C34.321 23.7502 34.3215 23.7492 34.3217 23.7482C34.349 23.6707 34.3777 23.5941 34.4074 23.5181C34.4179 23.4911 34.4292 23.4645 34.44 23.4377C34.4593 23.39 34.4788 23.3425 34.4989 23.2954C34.5134 23.2615 34.5285 23.228 34.5435 23.1945C34.5608 23.156 34.5782 23.1176 34.5961 23.0797C34.6137 23.0422 34.6315 23.005 34.6497 22.968C34.6654 22.9359 34.6816 22.904 34.6978 22.8724C34.7184 22.832 34.739 22.7918 34.7603 22.752C34.774 22.7265 34.7879 22.7015 34.8018 22.6765C34.8262 22.6323 34.8505 22.5882 34.8755 22.5449C34.8813 22.535 34.8872 22.5256 34.893 22.5158C34.9889 22.3528 35.0902 22.1964 35.1966 22.0472C35.2085 22.0305 35.2203 22.0133 35.2324 21.9967C35.2607 21.9578 35.2895 21.9199 35.3185 21.8821C35.3348 21.8609 35.3511 21.8395 35.3676 21.8185C35.3946 21.7842 35.422 21.7505 35.4495 21.7171C35.4694 21.6932 35.4893 21.6696 35.5093 21.6461C35.5348 21.6163 35.5604 21.5868 35.5862 21.558C35.6107 21.5307 35.6355 21.504 35.6603 21.4775C35.6828 21.4535 35.7052 21.4293 35.7278 21.4059C35.7633 21.3697 35.799 21.3345 35.835 21.2998C35.8479 21.2872 35.8606 21.2742 35.8737 21.2619C35.9256 21.2131 35.978 21.1659 36.031 21.1208C36.0315 21.1205 36.0317 21.1202 36.0322 21.1198C36.196 20.9803 36.3647 20.8583 36.5367 20.7567C36.5378 20.756 36.539 20.7551 36.5401 20.7544C36.932 20.5227 37.4543 20.3278 37.9518 20.5031C38.084 20.5497 38.3698 20.6775 38.798 21.012C39.1719 21.3037 39.6938 21.3106 40.075 21.0289C40.4562 20.7474 40.603 20.2462 40.4339 19.8034C40.2543 19.333 40.1513 18.8958 40.1513 18.6038C40.1513 17.4938 41.9034 16.257 44.4175 16.257C46.9317 16.257 48.6838 17.4938 48.6838 18.6038C48.6838 18.9422 48.5454 19.4723 48.3134 20.022C48.1223 20.4747 48.2689 20.9994 48.667 21.2877C49.0649 21.5757 49.6094 21.5511 49.9798 21.2282C50.5617 20.721 50.9483 20.5522 51.0876 20.5031C51.7703 20.2631 52.4998 20.718 52.874 21.0105C53.6459 21.6139 54.3178 22.6117 54.7178 23.7482C55.0783 24.7719 55.1925 25.8263 55.0591 26.7076C54.3728 26.4438 53.6056 26.2659 52.7848 26.1931C52.7667 26.1914 52.7484 26.19 52.7303 26.1885C52.6242 26.1796 52.5172 26.1726 52.4095 26.1674C52.3805 26.166 52.3518 26.1643 52.3229 26.163C52.1962 26.1579 52.0688 26.1547 51.9399 26.1547C51.5077 26.1547 51.0868 26.1834 50.6806 26.2381C50.6805 26.2381 50.6802 26.2381 50.6799 26.2382C50.0515 26.323 49.4592 26.471 48.9154 26.6715C48.6821 24.3958 46.754 22.6145 44.4176 22.6145C41.9312 22.6143 39.9076 24.6319 39.8967 27.1159ZM46.8279 27.1358C46.8279 27.4928 46.7479 27.8307 46.608 28.1357C46.3729 28.3857 46.1732 28.654 46.0132 28.9374C45.5876 29.3147 45.0298 29.546 44.4176 29.546C43.0887 29.546 42.0075 28.4649 42.0075 27.1358C42.0075 25.8069 43.0887 24.7257 44.4176 24.7257C45.7465 24.7257 46.8279 25.8069 46.8279 27.1358ZM11.154 26.9565C11.154 13.2569 22.2996 2.11134 35.9992 2.11134C49.6989 2.11134 60.8445 13.2569 60.8445 26.9565V30.8088C60.0025 30.3774 59.1239 30.2359 58.3111 30.4076C58.2506 29.4301 57.7597 28.5436 56.9643 27.8362C57.3775 26.4354 57.2949 24.711 56.7092 23.047C56.1712 21.5183 55.2711 20.2043 54.1742 19.3469C53.0929 18.5018 51.882 18.1673 50.7888 18.3985C50.6403 15.9974 47.8953 14.1453 44.4175 14.1453C40.9573 14.1453 38.2224 15.9789 38.0487 18.3624C37.3855 18.2649 36.6854 18.3707 36.0015 18.6657C35.2449 18.3376 34.4697 18.2451 33.7481 18.3984C33.5996 15.9972 30.8546 14.1453 27.3768 14.1453C23.9172 14.1453 21.1827 15.9778 21.0081 18.3607C18.7943 18.0264 16.3764 19.9581 15.2891 23.047C14.7258 24.6476 14.6286 26.3204 14.9952 27.6962C14.1135 28.4169 13.5607 29.3427 13.4858 30.3715C12.73 30.2605 11.9266 30.4132 11.154 30.8092V26.9565ZM9.75848 35.7571C10.1584 34.6206 10.8305 33.6229 11.6024 33.0196C11.9767 32.727 12.7065 32.2719 13.3887 32.5122C13.5209 32.5588 13.8067 32.6866 14.2349 33.0211C14.6085 33.3129 15.1308 33.3197 15.5117 33.0382C15.893 32.7566 16.0398 32.2554 15.8708 31.8126C15.6912 31.3421 15.5882 30.9049 15.5882 30.6129C15.5882 30.0568 16.0282 29.4688 16.7834 29.0205C16.7861 29.019 16.789 29.0178 16.7917 29.0163C17.5118 28.5937 18.4331 28.3372 19.4215 28.279C19.4269 28.2787 19.4322 28.2786 19.4376 28.2783C19.5754 28.2705 19.7145 28.2662 19.8544 28.2662C21.4593 28.2662 22.7527 28.7705 23.479 29.4238C23.638 29.6938 23.8237 29.9465 24.0335 30.177C24.0904 30.3225 24.1207 30.4689 24.1207 30.6131C24.1207 30.9514 23.9823 31.4816 23.7502 32.0313C23.5591 32.484 23.7058 33.0086 24.1039 33.2969C24.152 33.3318 24.2025 33.3616 24.2542 33.3872C24.2717 33.3959 24.2901 33.4015 24.308 33.4091C24.343 33.4242 24.3779 33.4392 24.4139 33.4503C24.4357 33.4569 24.4579 33.4607 24.48 33.4659C24.5131 33.4738 24.546 33.4818 24.5795 33.4865C24.6031 33.4897 24.6269 33.4903 24.6507 33.492C24.6747 33.4936 24.6986 33.4974 24.7227 33.4974C24.7345 33.4974 24.7462 33.4963 24.7578 33.4959C24.766 33.4956 24.7741 33.4953 24.7824 33.4948C24.8329 33.492 24.8833 33.4855 24.933 33.4755C24.9406 33.474 24.9482 33.4721 24.9558 33.4704C25.0062 33.459 25.0557 33.4444 25.104 33.4257C25.1101 33.4233 25.116 33.4207 25.122 33.4181C25.1715 33.3979 25.2201 33.3744 25.2666 33.3464C25.2703 33.3442 25.2736 33.3416 25.2773 33.3394C25.3257 33.3094 25.3725 33.276 25.4165 33.2376C25.5619 33.1107 25.6952 33.0051 25.8155 32.9171C26.1763 32.6533 26.4199 32.5492 26.5242 32.5124C26.5649 32.498 26.6058 32.4866 26.6467 32.4771C26.674 32.4707 26.702 32.4665 26.73 32.4622C26.7426 32.4602 26.7553 32.4572 26.7681 32.4557C27.0164 32.425 27.2885 32.469 27.5809 32.5877C27.5887 32.591 27.5968 32.5931 27.6046 32.596C27.8891 32.716 28.1379 32.8849 28.3106 33.0199C29.0825 33.6232 29.7544 34.621 30.1545 35.7574C30.4253 36.5268 30.5593 37.3109 30.5493 38.0364H24.2347C23.7355 36.0813 21.9514 34.6237 19.8542 34.6237C17.757 34.6237 15.9728 36.0814 15.4738 38.0364H9.36361C9.35377 37.3106 9.48778 36.5265 9.75848 35.7571ZM21.9913 38.0361H17.7179C18.1217 37.2645 18.9315 36.7348 19.8547 36.7348C20.7779 36.7348 21.5874 37.2646 21.9913 38.0361ZM56.3263 66.4373C55.6924 68.5017 53.8152 69.8887 51.6556 69.8887H20.343C18.1835 69.8887 16.3063 68.5017 15.672 66.4373L9.0652 44.9291H62.9336L56.3263 66.4373ZM65.9451 42.8176H6.05386C5.31769 42.8176 4.71877 42.2187 4.71877 41.4825C4.71877 40.7464 5.31769 40.1475 6.05386 40.1475H65.9451C66.6812 40.1475 67.2802 40.7464 67.2802 41.4825C67.2802 42.2187 66.6812 42.8176 65.9451 42.8176Z" fill="#EC3892"/>
</svg>
