<svg width="72" height="72" viewBox="0 0 72 72" fill="none" xmlns="http://www.w3.org/2000/svg">
<path d="M65.1583 32.6174C64.5752 32.6174 64.1027 33.0899 64.1027 33.673V67.3293C64.1027 67.946 63.6008 68.4479 62.9839 68.4479H9.01685C8.40007 68.4479 7.89818 67.946 7.89818 67.3293V33.6728C7.89818 33.0898 7.42567 32.6173 6.84264 32.6173C6.25961 32.6173 5.78711 33.0898 5.78711 33.6728V67.3291C5.78711 69.11 7.23597 70.5589 9.01685 70.5589H62.9839C64.7648 70.5589 66.2138 69.11 66.2138 67.3291V33.6728C66.2138 33.09 65.7413 32.6174 65.1583 32.6174Z" fill="#EC3892"/>
<path d="M69.2709 18.3501H52.9335C53.0506 18.2996 53.1686 18.2511 53.285 18.1993C58.2605 15.9865 61.8062 12.8484 62.7695 9.80514C63.2807 8.19034 63.5158 5.1316 59.3474 2.78963C56.7509 1.33106 54.0213 1.05417 51.2344 1.96711C46.6208 3.47841 42.6606 8.01737 39.8892 12.0979C39.8896 12.0982 39.8902 12.0986 39.8906 12.099C38.7866 11.3281 37.4456 10.8743 35.9998 10.8743C34.5547 10.8743 33.2143 11.3278 32.1105 12.098C29.3391 8.01751 25.3789 3.47855 20.7653 1.96725C17.9785 1.05445 15.2486 1.33106 12.6523 2.78977C8.48435 5.1316 8.71947 8.19034 9.2305 9.80528C10.1939 12.8484 13.7395 15.9865 18.715 18.1995C18.8314 18.2512 18.9495 18.2997 19.0665 18.3502H2.72926C1.22442 18.3501 0 19.5745 0 21.0793V27.114C0 28.6188 1.22442 29.8433 2.72926 29.8433H29.1854V52.1491C29.1854 52.569 29.4341 52.9488 29.8189 53.1166C29.9547 53.1757 30.0982 53.2045 30.2405 53.2045C30.502 53.2045 30.7598 53.1073 30.9589 52.9225L36.0001 48.2418L41.0408 52.9227C41.3483 53.2081 41.7958 53.2842 42.181 53.1167C42.5657 52.949 42.8145 52.569 42.8145 52.1492V29.8434H69.2708C70.7756 29.8434 72 28.619 72 27.1141V21.0795C72.0001 19.5745 70.7757 18.3501 69.2709 18.3501ZM2.72926 27.7325C2.38824 27.7325 2.11093 27.4552 2.11093 27.1141V21.0795C2.11093 20.7385 2.38824 20.4612 2.72926 20.4612H29.1854V27.7325H2.72926ZM29.1855 17.6889V18.3501H26.1332C23.8692 17.889 21.6445 17.1918 19.5731 16.2704C15.2072 14.3286 12.0153 11.6071 11.2433 9.16797C10.6788 7.38498 11.5009 5.85821 13.6868 4.63013C14.9703 3.909 16.258 3.54985 17.5784 3.54985C18.4059 3.54985 19.2464 3.69103 20.1062 3.97243C24.2664 5.3341 27.9647 9.70797 30.5572 13.5937C29.6965 14.7346 29.1855 16.1531 29.1855 17.6889ZM35.2818 46.0281L31.2963 49.7288V29.8434H40.7034V49.7287L36.7182 46.0281C36.3131 45.6521 35.6866 45.6521 35.2818 46.0281ZM40.7036 27.7325H31.2964V20.4612H40.7036V27.7325ZM40.7036 18.3501H31.2964V17.6889C31.2964 15.0952 33.4065 12.9852 36.0001 12.9852C38.5936 12.9852 40.7036 15.0952 40.7036 17.6889V18.3501ZM41.443 13.5939C44.0353 9.70811 47.7336 5.33424 51.894 3.97257C54.1261 3.24188 56.2258 3.45717 58.3135 4.63013C60.4994 5.85821 61.3215 7.38498 60.757 9.16797C59.985 11.6071 56.7931 14.3286 52.4272 16.2704C50.3558 17.1916 48.1314 17.889 45.8676 18.3501H42.8146V17.6889C42.8145 16.1531 42.3035 14.7348 41.443 13.5939ZM69.2709 27.7325H42.8145V20.4612H69.2708C69.6118 20.4612 69.8891 20.7385 69.8891 21.0795V27.1141H69.8892C69.8892 27.4552 69.6119 27.7325 69.2709 27.7325Z" fill="#EC3892"/>
</svg>
