<svg width="26" height="26" viewBox="0 0 26 26" fill="none" xmlns="http://www.w3.org/2000/svg">
<path d="M13 0C5.83176 0 0 5.83176 0 13C0 20.1682 5.83176 26 13 26C20.1682 26 26 20.1682 26 13C26 5.83176 20.1682 0 13 0ZM13 24.5126C6.65196 24.5126 1.48736 19.348 1.48736 13C1.48736 6.65196 6.65196 1.48736 13 1.48736C19.348 1.48736 24.5126 6.65196 24.5126 13C24.5126 19.348 19.348 24.5126 13 24.5126Z" fill="#EC3892"/>
<path d="M17.7335 6.63733H8.2653C7.39958 6.63733 6.69531 7.34159 6.69531 8.20732V17.7925C6.69531 18.6582 7.39958 19.3625 8.2653 19.3625H17.7335C18.5992 19.3625 19.3035 18.6582 19.3035 17.7925V8.20732C19.3035 7.34168 18.5992 6.63733 17.7335 6.63733ZM17.8161 17.7925C17.8161 17.8381 17.7791 17.8751 17.7335 17.8751H8.2653C8.21969 17.8751 8.18267 17.8381 8.18267 17.7925V8.20732C8.18267 8.1617 8.21969 8.12469 8.2653 8.12469H17.7335C17.7791 8.12469 17.8161 8.1617 17.8161 8.20732V17.7925Z" fill="#EC3892"/>
<path d="M10.8304 9.23914H9.12695V10.8018H10.8304V9.23914Z" fill="#EC3892"/>
<path d="M12.9997 15.309C13.9272 15.309 14.6791 14.5571 14.6791 13.6296C14.6791 12.7021 13.9272 11.9502 12.9997 11.9502C12.0722 11.9502 11.3203 12.7021 11.3203 13.6296C11.3203 14.5571 12.0722 15.309 12.9997 15.309Z" fill="#EC3892"/>
<path d="M15.6787 13.6221C15.6787 15.1015 14.4794 16.3008 12.9999 16.3008C11.5205 16.3008 10.3212 15.1015 10.3212 13.6221L10.3249 12.4285H9.12695V16.8708H16.873V12.4285H15.6849L15.6787 13.6221Z" fill="#EC3892"/>
</svg>
