<svg width="72" height="72" viewBox="0 0 72 72" fill="none" xmlns="http://www.w3.org/2000/svg">
<g clip-path="url(#clip0)">
<path d="M64.2166 14.9441L55.5563 13.0987C55.4614 13.0784 55.3676 13.0553 55.2737 13.0326C55.2155 13.0123 55.1549 12.9973 55.0924 12.9874C51.0254 11.9222 48.0177 8.47462 47.5402 4.26502L47.4431 3.08334C47.4352 2.98702 47.4143 2.89322 47.3814 2.8042C47.3797 2.79689 47.3772 2.79 47.3753 2.78269C47.3707 2.76427 47.3654 2.74598 47.36 2.72784C47.3534 2.7052 47.3465 2.6827 47.3388 2.66048C47.3324 2.64234 47.3258 2.62434 47.3188 2.60648C47.3105 2.58497 47.3018 2.56373 47.2925 2.54278C47.2848 2.5252 47.2768 2.50762 47.2683 2.49033C47.2583 2.46966 47.2477 2.44927 47.2367 2.42916C47.2275 2.41228 47.2184 2.39541 47.2087 2.37881C47.197 2.35884 47.1845 2.3393 47.1719 2.31975C47.1614 2.30358 47.1512 2.28741 47.1402 2.27152C47.1267 2.25211 47.1124 2.23312 47.098 2.21414C47.0866 2.19895 47.0755 2.18362 47.0636 2.16886C47.0478 2.14917 47.031 2.13019 47.0144 2.11092C47.0025 2.09728 46.9913 2.0835 46.9789 2.07C46.958 2.04708 46.9357 2.02486 46.9135 2.00264C46.8992 1.9883 46.885 1.97409 46.8702 1.96017C46.8439 1.93528 46.8172 1.91053 46.7894 1.88648C46.7746 1.87369 46.759 1.86145 46.7438 1.84894C46.7237 1.83234 46.7039 1.81575 46.6832 1.79958C46.6659 1.78608 46.6479 1.773 46.63 1.75992C46.6103 1.7453 46.5908 1.73067 46.5705 1.71633C46.5517 1.70297 46.5323 1.69003 46.513 1.67695C46.4928 1.66331 46.4724 1.64953 46.4516 1.63617C46.4316 1.62323 46.4111 1.61072 46.3907 1.59806C46.3697 1.58527 46.3488 1.57233 46.3274 1.55981C46.3062 1.5473 46.2845 1.53492 46.2629 1.52269C46.2413 1.51045 46.2195 1.4985 46.1975 1.48655C46.1754 1.47459 46.1532 1.46264 46.1305 1.45097C46.108 1.4393 46.0854 1.42777 46.0625 1.41637C46.0395 1.40498 46.0166 1.39345 45.9933 1.38234C45.9701 1.37123 45.9464 1.36027 45.9228 1.3493C45.8993 1.33847 45.8759 1.3275 45.8519 1.31681C45.8279 1.30613 45.8036 1.29572 45.7791 1.28517C45.7549 1.27477 45.7307 1.26422 45.7063 1.25395C45.6815 1.24369 45.6565 1.23384 45.6315 1.22372C45.6068 1.21387 45.5824 1.20375 45.5575 1.19419C45.531 1.18392 45.504 1.17408 45.4773 1.16409C45.4298 1.14637 45.382 1.12894 45.3336 1.11192C45.3079 1.10278 45.2823 1.09364 45.2564 1.08478C45.2294 1.07564 45.2021 1.06678 45.175 1.05778C45.1495 1.04934 45.1241 1.04091 45.0985 1.03261C45.0711 1.02375 45.0434 1.01531 45.0158 1.00673C44.9902 0.998719 44.9645 0.990703 44.9387 0.982969C44.9109 0.974531 44.8828 0.966375 44.8548 0.958078C44.8289 0.950484 44.803 0.942891 44.777 0.935438C44.749 0.927422 44.721 0.919688 44.6929 0.911813C44.6665 0.9045 44.6399 0.897187 44.6135 0.890016C44.5858 0.882563 44.5579 0.875109 44.5301 0.867797C44.5029 0.860625 44.4759 0.853594 44.4488 0.846563C44.4212 0.839531 44.3937 0.8325 44.3661 0.825609C44.3385 0.818719 44.311 0.811828 44.2833 0.805078C44.256 0.798469 44.2289 0.791719 44.2017 0.78525C44.1739 0.7785 44.1459 0.772031 44.118 0.765562C44.0909 0.759234 44.0639 0.752906 44.0368 0.746719C44.0082 0.74025 43.9798 0.733781 43.9513 0.727453C43.925 0.721547 43.8988 0.715641 43.8725 0.709875C43.8426 0.703266 43.8127 0.696938 43.7829 0.690469C43.7583 0.685125 43.7337 0.679781 43.7091 0.674578C43.6717 0.666703 43.6343 0.658969 43.597 0.651234C43.581 0.647859 43.565 0.644484 43.5489 0.64125C41.5273 0.227812 38.8539 0 36.021 0C33.1884 0 30.5148 0.227812 28.4931 0.641391C28.4395 0.652359 28.3858 0.663469 28.3319 0.675C28.3115 0.679359 28.2911 0.683719 28.2707 0.688219C28.237 0.695391 28.2032 0.702703 28.1695 0.710156C28.1453 0.7155 28.1211 0.720984 28.0969 0.726328C28.0667 0.733078 28.0364 0.739828 28.0061 0.746859C27.9808 0.752625 27.9553 0.758531 27.93 0.764578C27.9002 0.771469 27.8705 0.7785 27.8407 0.785672C27.8154 0.791719 27.7901 0.797906 27.7646 0.804094C27.7352 0.811266 27.7058 0.818578 27.6763 0.825891C27.6506 0.832359 27.625 0.838828 27.5992 0.845438C27.5701 0.852891 27.541 0.860484 27.5121 0.868078C27.4862 0.874969 27.4603 0.881719 27.4344 0.88875C27.4059 0.896484 27.3773 0.904359 27.3488 0.912234C27.3231 0.919406 27.2973 0.926578 27.2716 0.933891C27.2428 0.942187 27.2139 0.950625 27.1852 0.959063C27.1601 0.966516 27.1348 0.973828 27.1097 0.981422C27.0801 0.990422 27.0507 0.999563 27.0211 1.0087C26.9975 1.01602 26.9737 1.02333 26.9503 1.03078C26.913 1.04273 26.876 1.05497 26.839 1.06734C26.8123 1.0762 26.7857 1.0852 26.7592 1.09434C26.7199 1.10784 26.6807 1.12148 26.642 1.13555C26.6209 1.14314 26.6001 1.15116 26.5792 1.15889C26.5492 1.17 26.5192 1.18111 26.4897 1.1925C26.4675 1.20108 26.4457 1.20994 26.4238 1.21866C26.3961 1.22963 26.3685 1.24073 26.3412 1.25198C26.3187 1.26127 26.2965 1.27083 26.2741 1.28039C26.2478 1.29164 26.2215 1.30303 26.1955 1.31456C26.1736 1.32441 26.1518 1.33425 26.1301 1.34423C26.1044 1.35605 26.0789 1.368 26.0536 1.38009C26.0324 1.39036 26.0112 1.40063 25.9902 1.41103C25.9652 1.42355 25.9404 1.43606 25.9158 1.44886C25.8956 1.45941 25.8753 1.46995 25.8554 1.48064C25.8307 1.49386 25.8064 1.5075 25.7824 1.521C25.7632 1.53183 25.744 1.54252 25.7251 1.55363C25.7005 1.56811 25.6765 1.58273 25.6524 1.59764C25.6351 1.60833 25.6176 1.61887 25.6005 1.6297C25.5747 1.6463 25.5495 1.66317 25.5245 1.68019C25.5101 1.68989 25.4955 1.69931 25.4814 1.70916C25.4467 1.73348 25.4128 1.75838 25.3798 1.78369C25.3761 1.7865 25.372 1.78917 25.3684 1.79213C25.3319 1.82025 25.2967 1.84908 25.2625 1.87833C25.2511 1.88817 25.2404 1.8983 25.2292 1.90828C25.2067 1.92825 25.1842 1.94836 25.1626 1.96889C25.1501 1.98098 25.1382 1.99336 25.1261 2.00559C25.1071 2.02458 25.0882 2.04356 25.0702 2.06311C25.0579 2.07647 25.0461 2.09025 25.034 2.10389C25.0172 2.12287 25.0008 2.142 24.985 2.16155C24.9735 2.17575 24.9624 2.19038 24.9513 2.20486C24.9364 2.22441 24.9217 2.24423 24.9077 2.2642C24.8973 2.27911 24.887 2.29416 24.877 2.30934C24.8637 2.32973 24.8509 2.35041 24.8384 2.37136C24.8292 2.38669 24.8201 2.40216 24.8115 2.41777C24.7995 2.43928 24.7886 2.46122 24.7776 2.4833C24.7699 2.49891 24.7621 2.51452 24.755 2.53027C24.7444 2.55361 24.735 2.57737 24.7256 2.60128C24.7195 2.61661 24.7132 2.63166 24.7077 2.64713C24.6983 2.6737 24.6901 2.70098 24.6821 2.72827C24.6782 2.74162 24.6737 2.75484 24.67 2.76834C24.6695 2.77073 24.6685 2.77298 24.6679 2.77523C24.6318 2.86861 24.6086 2.96775 24.6001 3.07027L24.5021 4.26459C24.0247 8.4742 21.0169 11.9218 16.95 12.987C16.8874 12.9968 16.8268 13.0119 16.7684 13.0321C16.6747 13.0549 16.581 13.078 16.4861 13.0982L7.1265 15.0926C4.1603 15.7247 2.13164 18.3822 2.30306 21.4116C2.47097 24.3816 2.91717 29.1525 4.84387 36.2631C4.99617 36.8256 5.57541 37.1583 6.13875 37.0059C6.70139 36.8535 7.03397 36.2737 6.88153 35.711C5.00658 28.791 4.57345 24.1678 4.41089 21.2923C4.29867 19.3099 5.62589 17.5708 7.56651 17.1574L16.1085 15.3373C16.3196 18.1991 17.2186 21.0094 18.742 23.5354C18.9269 23.8421 19.1242 24.1436 19.3273 24.4427V26.7888V29.2773C19.3042 29.3099 19.2804 29.3421 19.2603 29.377L16.7867 33.6471C16.5437 34.0664 16.5437 34.5874 16.7867 35.0068L19.2605 39.277C19.5022 39.6942 19.9519 39.9534 20.434 39.9534C20.916 39.9534 21.3659 39.6942 21.6076 39.277L24.0812 35.0069C24.3242 34.5876 24.3242 34.0665 24.0812 33.6472L21.6076 29.3771C21.5597 29.2943 21.5015 29.2196 21.4385 29.15V27.0772C23.4026 29.1797 25.8773 31.0556 28.8429 32.6779C30.7732 33.7337 32.8644 34.3347 34.9783 34.4838C34.9708 34.5345 34.9656 34.5862 34.9656 34.639V36.3704C33.6186 35.8238 32.0277 35.9408 30.596 36.7931C29.7071 37.3222 29.0564 38.1967 28.8109 39.1925C27.325 45.2175 35.2965 48.4128 35.6367 48.5459C35.7603 48.5942 35.8908 48.6184 36.0213 48.6184C36.1518 48.6184 36.2823 48.5942 36.4059 48.5459C36.4883 48.5137 38.4455 47.7391 40.2583 46.2732C42.8326 44.1917 43.8607 41.7433 43.2317 39.1925C42.9862 38.1967 42.3355 37.3223 41.4464 36.7931C40.0146 35.9408 38.4239 35.8238 37.0768 36.3704V34.639C37.0768 34.5862 37.0716 34.5345 37.0642 34.4838C39.178 34.3349 41.2693 33.7338 43.1995 32.6779C46.1137 31.0838 48.5543 29.2451 50.5019 27.1869V29.2773C50.4788 29.3099 50.455 29.3421 50.4349 29.377L47.9613 33.6471C47.7183 34.0664 47.7183 34.5874 47.9613 35.0068L50.4351 39.277C50.6768 39.6942 51.1265 39.9534 51.6086 39.9534C52.0906 39.9534 52.5405 39.6942 52.7822 39.277L55.2558 35.0069C55.4988 34.5876 55.4988 34.0665 55.2558 33.6472L52.7822 29.3771C52.7343 29.2943 52.6761 29.2196 52.6131 29.15V24.5919C52.6131 24.5918 52.6131 24.5918 52.6131 24.5917C52.8534 24.2442 53.0849 23.893 53.3004 23.5354C54.8238 21.0094 55.7227 18.1991 55.9339 15.3373L63.7767 17.0085C66.1101 17.5057 67.7473 19.6705 67.5847 22.044C67.293 26.3026 66.4981 30.7811 65.1543 35.7352C65.0017 36.2978 65.334 36.8776 65.8966 37.0302C65.9892 37.0554 66.0821 37.0673 66.1735 37.0673C66.6383 37.0673 67.0641 36.758 67.1917 36.2879C68.572 31.1986 69.3895 26.5866 69.6907 22.1881C69.9247 18.7734 67.5712 15.659 64.2166 14.9441ZM27.5741 3.05311C28.4617 2.77172 29.9307 2.47205 31.9319 2.28811C31.9685 2.28487 32.0052 2.2815 32.042 2.27827C32.1119 2.27208 32.1828 2.26603 32.2539 2.26013C32.3574 2.25169 32.4612 2.24339 32.566 2.23552C32.5762 2.23481 32.5865 2.23397 32.5968 2.23327C33.2749 2.18334 33.98 2.14833 34.6995 2.12892C34.7045 2.12878 34.7095 2.12864 34.7144 2.1285C34.8475 2.12498 34.9811 2.12203 35.1149 2.1195C35.1739 2.11837 35.2339 2.11767 35.2934 2.11683C35.3795 2.11556 35.4655 2.11416 35.5519 2.11331C35.7066 2.11191 35.8627 2.11106 36.021 2.11106C36.1812 2.11106 36.3392 2.11191 36.4956 2.11331C36.5323 2.11359 36.5683 2.11416 36.6047 2.11458C36.7226 2.11598 36.8396 2.11753 36.9552 2.11978C37.001 2.12063 37.0464 2.12161 37.0919 2.12259C37.199 2.12484 37.305 2.12752 37.4102 2.13033C37.4549 2.13159 37.4995 2.13272 37.5438 2.13412C37.656 2.1375 37.767 2.14144 37.8768 2.14552C37.91 2.14678 37.9435 2.14791 37.9764 2.14917C38.2637 2.16056 38.5431 2.17448 38.8149 2.19052C38.8476 2.19248 38.8793 2.19459 38.9117 2.19656C39.0135 2.20275 39.1146 2.20936 39.2142 2.21611C39.254 2.21878 39.2935 2.22173 39.3329 2.22455C39.4251 2.23116 39.5164 2.23805 39.6067 2.24508C39.6456 2.24817 39.6844 2.25113 39.7229 2.25436C39.8177 2.26209 39.9112 2.27011 40.0039 2.27841C40.0342 2.28108 40.0649 2.28375 40.095 2.28642C40.3397 2.30878 40.5764 2.33297 40.8052 2.35856C40.8346 2.3618 40.8631 2.36531 40.8923 2.36855C40.9762 2.37811 41.0593 2.38795 41.141 2.39794C41.176 2.40216 41.2105 2.40652 41.2451 2.41087C41.3205 2.4203 41.3947 2.43 41.4681 2.4397C41.5023 2.4442 41.5366 2.44884 41.5703 2.45348C41.6471 2.46403 41.7225 2.47472 41.797 2.48555C41.8237 2.48948 41.851 2.49328 41.8775 2.49708C42.0787 2.52689 42.2718 2.55769 42.4566 2.58933C42.482 2.59369 42.5068 2.59819 42.5319 2.60255C42.5975 2.61394 42.6623 2.62547 42.7257 2.63714C42.7558 2.64263 42.7855 2.64825 42.8152 2.65387C42.8731 2.6647 42.9303 2.67581 42.9864 2.68678C43.0155 2.69255 43.0447 2.69817 43.0733 2.70394C43.131 2.71547 43.1872 2.72728 43.2428 2.73895C43.2668 2.74402 43.2913 2.74908 43.3149 2.75414C43.4705 2.78761 43.618 2.8215 43.7571 2.85553C43.7791 2.86087 43.8004 2.86636 43.822 2.87184C43.8687 2.88352 43.9147 2.89519 43.9594 2.90686C43.984 2.91333 44.0082 2.9198 44.0323 2.92627C44.0729 2.93709 44.1126 2.94806 44.1515 2.95889C44.1747 2.96536 44.1979 2.97183 44.2204 2.9783C44.2604 2.98969 44.2989 3.00108 44.337 3.01247C44.3558 3.01809 44.3754 3.02386 44.3938 3.02948C44.4442 3.04495 44.4928 3.06028 44.5396 3.07561C44.5464 3.07786 44.5533 3.07997 44.56 3.08222C44.6083 3.09811 44.6544 3.114 44.6988 3.12975C44.7153 3.13566 44.7307 3.14142 44.7466 3.14719C44.7677 3.15492 44.7881 3.16252 44.8082 3.17011C44.374 3.34027 43.65 3.55584 42.4698 3.75736C40.6726 4.0642 38.3824 4.23338 36.0209 4.23338C31.5026 4.23338 28.4843 3.64767 27.2328 3.17447C27.3309 3.13622 27.4447 3.09544 27.5741 3.05311ZM22.0351 34.3275L20.4338 37.092L18.8325 34.3275L20.4338 31.5631L22.0351 34.3275ZM40.3665 38.6076C40.7734 38.8498 41.0704 39.2473 41.1817 39.6983C42.0757 43.3242 37.413 45.7705 36.0197 46.4124C34.6229 45.7725 29.9629 43.3373 30.8602 39.6983C30.9714 39.2473 31.2686 38.8498 31.6754 38.6076C32.2186 38.2843 32.7453 38.1473 33.2286 38.1473C34.0559 38.1473 34.7555 38.5488 35.1896 39.1036C35.3897 39.3593 35.6963 39.5086 36.0209 39.5086C36.3456 39.5086 36.6521 39.3593 36.8521 39.1036C37.54 38.2248 38.8935 37.7307 40.3665 38.6076ZM53.2099 34.3275L51.6086 37.092L50.0073 34.3275L51.6086 31.5631L53.2099 34.3275ZM51.4926 22.4457C49.5279 25.7034 46.3969 28.5231 42.1864 30.8263C38.326 32.9379 33.7166 32.9379 29.8561 30.8263C25.6457 28.5233 22.5145 25.7036 20.5499 22.4457C19.1121 20.0616 18.3221 17.4999 18.1919 14.821C22.5317 13.4041 25.7448 9.69539 26.5057 5.15827C27.1265 5.39648 27.8279 5.5672 28.4933 5.70333C30.5151 6.11691 33.1887 6.34472 36.0213 6.34472C38.8539 6.34472 41.5275 6.11691 43.5492 5.70333C44.2147 5.5672 44.9161 5.39648 45.5368 5.15827C46.2976 9.69539 49.5107 13.4041 53.8506 14.821C53.7203 17.4999 52.9303 20.0616 51.4926 22.4457Z" fill="#EC3892"/>
<path d="M65.0773 39.7834C64.5223 39.605 63.9279 39.9101 63.7493 40.465C61.0252 48.9333 56.8714 58.5065 51.4035 68.9187C51.0892 69.5172 50.4726 69.889 49.7942 69.889H22.2483C21.5701 69.889 20.9534 69.5172 20.6391 68.9187C15.1594 58.4843 10.9997 48.8928 8.27567 40.4106C8.09735 39.8554 7.50293 39.55 6.94788 39.7284C6.39284 39.9066 6.0874 40.5012 6.26571 41.0562C9.02688 49.654 13.234 59.3586 18.7699 69.9002C19.4501 71.1954 20.7829 72 22.2483 72H49.7943C51.2597 72 52.5925 71.1954 53.2727 69.9002C58.7969 59.3809 62.998 49.6951 65.7591 41.1116C65.9375 40.5566 65.6322 39.9619 65.0773 39.7834Z" fill="#EC3892"/>
</g>
<defs>
<clipPath id="clip0">
<rect width="72" height="72" fill="white"/>
</clipPath>
</defs>
</svg>
