<svg width="23" height="22" viewBox="0 0 23 22" fill="none" xmlns="http://www.w3.org/2000/svg">
<path d="M22.8011 20.878L17.2105 15.5317C18.7101 13.8829 19.6181 11.7317 19.6181 9.38049C19.6181 4.20488 15.216 0 9.80905 0C4.39698 0 0 4.20976 0 9.38049C0 14.5512 4.40208 18.761 9.80905 18.761C12.2677 18.761 14.5172 17.8927 16.2413 16.4585L21.8319 21.8049C21.9645 21.9317 22.143 22 22.3165 22C22.4899 22 22.6684 21.9366 22.8011 21.8049C23.0663 21.5512 23.0663 21.1317 22.8011 20.878ZM1.37214 9.38049C1.37214 4.93171 5.15702 1.31707 9.80395 1.31707C14.456 1.31707 18.2358 4.93659 18.2358 9.38049C18.2358 13.8244 14.456 17.4488 9.80395 17.4488C5.15702 17.4488 1.37214 13.8293 1.37214 9.38049Z" fill="#EC3892"/>
</svg>
