<svg width="26" height="26" viewBox="0 0 26 26" fill="none" xmlns="http://www.w3.org/2000/svg">
<path d="M18.5735 10.4152C18.5735 10.284 18.5711 10.154 18.5652 10.0252C19.1266 9.60686 19.6135 9.08333 19.9987 8.48414C19.4835 8.7158 18.9304 8.87062 18.3489 8.93557C18.9422 8.57038 19.3972 7.98657 19.6123 7.28576C19.0568 7.62257 18.4423 7.86367 17.7887 7.98895C17.2652 7.39329 16.5183 7.01395 15.6921 6.99976C14.1061 6.97376 12.8203 8.31395 12.8203 9.99329C12.8203 10.232 12.8451 10.4637 12.8948 10.687C10.5063 10.5334 8.38971 9.2901 6.97385 7.41576C6.72685 7.86486 6.58504 8.38957 6.58504 8.95214C6.58504 10.0158 7.09204 10.9612 7.86257 11.519C7.39104 11.4978 6.94904 11.3548 6.56142 11.1208C6.56142 11.1338 6.56142 11.1468 6.56142 11.1598C6.56142 12.6465 7.5518 13.8921 8.86595 14.1829C8.62485 14.2514 8.37076 14.2869 8.10957 14.2857C7.92404 14.2845 7.74438 14.2644 7.56947 14.2266C7.93466 15.4451 8.99595 16.335 10.2522 16.3645C9.26891 17.1799 8.03038 17.6668 6.68547 17.6633C6.45381 17.6633 6.22457 17.648 6 17.6196C7.27166 18.4918 8.78081 18.9999 10.4034 18.9999C15.685 19.0011 18.5735 14.4039 18.5735 10.4152Z" fill="#EC3892"/>
<path d="M26 13C26 5.82043 20.1795 0 13 0C5.82043 0 0 5.82043 0 13C0 20.1795 5.82043 26 13 26C20.1795 26 26 20.1795 26 13ZM1.18181 13C1.18181 6.47281 6.47281 1.18181 13 1.18181C19.5272 1.18181 24.8182 6.47281 24.8182 13C24.8182 19.5272 19.5272 24.8182 13 24.8182C6.47281 24.8182 1.18181 19.5272 1.18181 13Z" fill="#EC3892"/>
</svg>
