<svg width="72" height="72" viewBox="0 0 72 72" fill="none" xmlns="http://www.w3.org/2000/svg">
<g clip-path="url(#clip0)">
<path d="M62.0388 70.9183C62.0355 70.6316 61.9473 64.5309 60.3733 57.0333C58.2351 46.8473 54.5262 39.3794 49.3497 34.8368C46.7029 32.5143 43.2549 31.235 39.6411 31.235H32.3587C28.7448 31.235 25.297 32.5141 22.65 34.8368C17.4736 39.3793 13.7648 46.8472 11.6266 57.0333C10.151 64.0626 9.98125 69.8641 9.96311 70.7977C9.9617 70.866 9.96114 70.9082 9.961 70.921C9.95945 71.0636 9.98645 71.2035 10.0389 71.3332C10.0914 71.4628 10.1691 71.5821 10.2694 71.6833C10.4698 71.8858 10.743 72 11.0281 72H60.9719C61.257 72 61.5302 71.886 61.7304 71.6833C61.931 71.4807 62.0419 71.2062 62.0388 70.9211C62.0388 70.9211 62.0388 70.9211 62.0388 70.921C62.0388 70.9204 62.0388 70.9189 62.0388 70.9183ZM13.7231 57.433C16.2675 45.3454 20.7475 39.3457 24.0575 36.4409C26.315 34.4599 29.263 33.3691 32.3587 33.3691H39.6411C42.7367 33.3691 45.6847 34.4601 47.9422 36.4409C53.9393 41.7035 56.8723 50.7613 58.2767 57.433C58.6187 59.0577 58.8886 60.6232 59.1023 62.0777C58.6385 61.9339 58.2799 61.7105 57.8726 61.4557C57.0787 60.9589 56.0908 60.3405 54.2623 60.3405C52.4337 60.3405 51.4459 60.9589 50.652 61.4557C49.9467 61.8971 49.3896 62.2457 48.1739 62.2457C46.9584 62.2457 46.4014 61.8971 45.6963 61.4557C44.9024 60.9589 43.9146 60.3405 42.0863 60.3405C40.258 60.3405 39.2703 60.9589 38.4763 61.4557C37.7712 61.8971 37.2142 62.2457 35.9987 62.2457C34.7832 62.2457 34.2262 61.8971 33.521 61.4557C32.7273 60.9589 31.7394 60.3405 29.9111 60.3405C28.0829 60.3405 27.0951 60.9589 26.3015 61.4557C25.5962 61.8971 25.0393 62.2457 23.8239 62.2457C22.6084 62.2457 22.0514 61.8971 21.3461 61.4557C20.5524 60.9589 19.5645 60.3405 17.7363 60.3405C15.908 60.3405 14.9203 60.9589 14.1264 61.4557C13.7193 61.7105 13.3609 61.9339 12.8974 62.0777C13.1111 60.623 13.3811 59.0577 13.7231 57.433ZM12.1318 69.8656C12.1839 68.7292 12.3082 66.7654 12.5997 64.3182C13.8436 64.1503 14.6151 63.6674 15.2589 63.2644C15.9641 62.823 16.521 62.4744 17.7366 62.4744C18.9521 62.4744 19.5091 62.823 20.2142 63.2644C21.0079 63.7612 21.9958 64.3796 23.8242 64.3796C25.6525 64.3796 26.6402 63.7612 27.4339 63.2644C28.1391 62.823 28.696 62.4744 29.9114 62.4744C31.1269 62.4744 31.6839 62.823 32.3891 63.2644C33.1828 63.7612 34.1707 64.3796 35.9989 64.3796C37.8272 64.3796 38.8151 63.7612 39.6089 63.2644C40.314 62.823 40.871 62.4744 42.0866 62.4744C43.3021 62.4744 43.8592 62.823 44.5642 63.2644C45.3581 63.7612 46.346 64.3796 48.1742 64.3796C50.0026 64.3796 50.9905 63.7612 51.7843 63.2644C52.4897 62.823 53.0467 62.4744 54.2626 62.4744C55.4783 62.4744 56.0354 62.823 56.7408 63.2644C57.3846 63.6674 58.1559 64.1501 59.4004 64.3182C59.692 66.7655 59.8163 68.7294 59.8683 69.8656H12.1318Z" fill="#EC3892"/>
<path d="M49.6424 19.0902C49.6322 18.9452 49.6156 18.802 49.5957 18.6596V11.464C49.5957 8.91969 47.5258 6.84969 44.9815 6.84969H42.5048C41.2802 6.84969 40.2841 5.85351 40.2841 4.62909V2.7862C40.2841 1.24987 39.0342 0 37.498 0H34.1352C32.5989 0 31.349 1.24987 31.349 2.7862V4.62909C31.349 5.85351 30.3529 6.84969 29.1284 6.84969H27.0175C24.4732 6.84969 22.4032 8.91969 22.4032 11.464V18.6605C22.3834 18.8025 22.3666 18.9454 22.3566 19.0902C22.3311 19.4594 22.271 20.3241 24.3157 28.8347C24.4532 29.4076 25.0294 29.7594 25.6024 29.6229C26.1755 29.4852 26.5283 28.9091 26.3906 28.336C24.5818 20.8071 24.4753 19.4667 24.4856 19.2379C24.4934 19.1237 24.5068 19.0109 24.524 18.8994C24.5241 18.8983 24.5245 18.897 24.5247 18.8959C24.7993 17.1215 26.2178 15.7126 27.9632 15.4246C27.9679 15.4239 27.9726 15.4233 27.9773 15.4225C28.0906 15.4042 28.2051 15.3903 28.321 15.3815C28.8238 15.3436 29.3165 15.3946 29.7809 15.5251C30.8027 15.8123 31.6879 16.484 32.2458 17.4393C32.7193 18.2501 33.4422 18.869 34.2816 19.2192C34.7852 19.4293 35.3307 19.5426 35.8893 19.5426H36.1098C37.5995 19.5426 38.9955 18.7368 39.7532 17.4394C40.5646 16.0501 42.067 15.2623 43.678 15.3817C43.7938 15.3903 43.9084 15.4043 44.0217 15.4226C44.0264 15.4233 44.0311 15.4239 44.0358 15.4247C45.7812 15.7127 47.1997 17.1216 47.4742 18.896C47.4746 18.8987 47.4753 18.9014 47.4759 18.904C47.4925 19.0133 47.5056 19.1237 47.5133 19.2355C47.5238 19.4677 47.4167 20.8126 45.5995 28.3733C45.4617 28.9462 45.8145 29.5225 46.3876 29.6602C46.4715 29.6803 46.5554 29.69 46.6378 29.69C47.1197 29.69 47.5569 29.361 47.6743 28.8721C49.7281 20.3269 49.6681 19.4602 49.6424 19.0902ZM47.4617 14.7655C46.722 14.1274 45.8341 13.6582 44.8593 13.418C44.8431 13.4141 44.8271 13.4101 44.8109 13.4063C44.7476 13.3913 44.6843 13.3769 44.6204 13.3637C44.5893 13.3574 44.5579 13.3516 44.5267 13.3457C44.4741 13.3359 44.4217 13.3257 44.3686 13.3172C44.3207 13.3093 44.2723 13.3028 44.2241 13.2962C44.1851 13.2909 44.1463 13.2847 44.1071 13.28C44.0174 13.2694 43.9274 13.2604 43.8367 13.2536C41.4072 13.0736 39.1363 14.264 37.9102 16.3634C37.5337 17.0081 36.8435 17.4088 36.1095 17.4088H35.889C35.1549 17.4088 34.465 17.0083 34.0884 16.3634C34.0143 16.2364 33.9358 16.1131 33.8543 15.9928C33.8268 15.9525 33.7972 15.9145 33.7689 15.875C33.7131 15.7965 33.6573 15.7181 33.5983 15.6427C33.5629 15.5974 33.5253 15.5546 33.4888 15.5105C33.4338 15.444 33.3791 15.3775 33.3217 15.3136C33.2812 15.2686 33.239 15.2257 33.1974 15.182C33.1409 15.1225 33.0843 15.0632 33.0257 15.0062C32.9813 14.963 32.9356 14.9218 32.89 14.8802C32.8311 14.8262 32.772 14.7726 32.7111 14.721C32.6636 14.6808 32.6151 14.6421 32.5664 14.6033C32.5047 14.5541 32.4425 14.5054 32.3791 14.4588C32.3291 14.4218 32.2783 14.3862 32.2272 14.3508C32.1624 14.3059 32.097 14.262 32.0306 14.2197C31.9786 14.1865 31.9262 14.1542 31.8733 14.1225C31.8052 14.0819 31.7363 14.0428 31.6669 14.0048C31.6133 13.9756 31.5597 13.9467 31.5053 13.919C31.4337 13.8826 31.3611 13.8482 31.2881 13.8146C31.2339 13.7895 31.1797 13.7645 31.1247 13.741C31.0489 13.7087 30.9722 13.679 30.8951 13.6496C30.8408 13.6289 30.787 13.6078 30.7323 13.5887C30.6517 13.5606 30.5698 13.5356 30.488 13.5107C30.435 13.4946 30.3824 13.4773 30.3288 13.4627C30.2412 13.4387 30.1523 13.4183 30.0634 13.398C30.0142 13.3868 29.9656 13.3738 29.9159 13.3639C29.8143 13.3432 29.7115 13.3269 29.6084 13.3111C29.5704 13.3054 29.533 13.2976 29.4948 13.2924C29.216 13.2551 28.9327 13.2355 28.6462 13.2355C28.6391 13.2355 28.6317 13.2359 28.6244 13.2359C28.6143 13.2359 28.6042 13.2363 28.5941 13.2364C28.4506 13.2376 28.3065 13.2428 28.1618 13.2536C28.0711 13.2604 27.9811 13.2694 27.8914 13.2802C27.8523 13.2848 27.8136 13.2909 27.7748 13.2962C27.7263 13.303 27.6779 13.3094 27.6297 13.3173C27.5769 13.3259 27.5246 13.3359 27.4724 13.3457C27.4409 13.3516 27.4093 13.3574 27.3779 13.3639C27.3144 13.3769 27.2512 13.3913 27.1882 13.4062C27.1718 13.4101 27.1552 13.4141 27.1389 13.418C26.1642 13.6582 25.2766 14.1276 24.5369 14.7655V11.464H24.5372C24.5372 10.0963 25.6498 8.98367 27.0175 8.98367H29.1284C31.5296 8.98367 33.4832 7.03025 33.4832 4.62909V2.7862C33.4832 2.42662 33.7757 2.13398 34.1352 2.13398H37.498C37.8576 2.13398 38.1501 2.42662 38.1501 2.7862V4.62909C38.1501 7.03025 40.1036 8.98367 42.5048 8.98367H44.9815C46.3491 8.98367 47.4617 10.0963 47.4617 11.464V14.7655Z" fill="#EC3892"/>
</g>
<defs>
<clipPath id="clip0">
<rect width="72" height="72" fill="white"/>
</clipPath>
</defs>
</svg>
