<svg width="72" height="72" viewBox="0 0 72 72" fill="none" xmlns="http://www.w3.org/2000/svg">
<path d="M21.6802 46.242L20.7296 35.5823C20.6584 34.7868 20.0025 34.187 19.2039 34.187H5.50732C4.70885 34.187 4.05298 34.7868 3.98154 35.5826L3.03092 46.2418C2.79804 48.8524 3.67906 51.4586 5.44812 53.3923C6.97798 55.0648 9.06795 56.1186 11.3001 56.3734V66.4118C10.776 66.5418 10.2783 66.7673 9.82873 67.0851L7.38059 68.8162C6.75453 69.2589 6.48987 70.0474 6.72204 70.7781C6.95421 71.5088 7.6257 72 8.39239 72H16.3187C17.0855 72 17.7567 71.5089 17.9891 70.7782C18.2214 70.0475 17.9566 69.2591 17.3305 68.8164L14.8824 67.0851C14.4329 66.7673 13.9351 66.5419 13.411 66.412V56.3736C15.6432 56.1188 17.7331 55.0648 19.263 53.3925C21.032 51.4586 21.9131 48.8524 21.6802 46.242ZM6.0372 36.2981H18.6739L19.3836 44.2556H5.3276L6.0372 36.2981ZM13.6636 68.8088L15.1909 69.8889H9.5202L11.0475 68.8089C11.4323 68.5369 11.8845 68.3931 12.3556 68.3931C12.8267 68.3931 13.279 68.5368 13.6636 68.8088ZM17.7056 51.9675C16.3153 53.4872 14.4154 54.3242 12.3556 54.3242C10.2959 54.3242 8.3959 53.4872 7.00568 51.9675C5.61546 50.4478 4.95059 48.481 5.13368 46.4294L5.13931 46.3667H19.5719L19.5776 46.4294C19.7605 48.481 19.0958 50.4478 17.7056 51.9675Z" fill="#EC3892"/>
<path d="M68.9694 46.2418L68.0186 35.5823C67.9475 34.7868 67.2916 34.187 66.493 34.187H52.7964C51.9979 34.187 51.342 34.7868 51.2706 35.5826L50.32 46.2418C50.0871 48.8524 50.9681 51.4586 52.7372 53.3923C54.267 55.0648 56.357 56.1186 58.5892 56.3734V66.4118C58.065 66.5417 57.5674 66.7673 57.1178 67.0851L54.6697 68.8162C54.0436 69.2589 53.7789 70.0474 54.0111 70.7781C54.2434 71.5089 54.9146 71.9998 55.6814 71.9998H63.6078C64.3746 71.9998 65.0458 71.5087 65.2781 70.7781C65.5104 70.0472 65.2456 69.2589 64.6196 68.8162L62.1714 67.085C61.722 66.7672 61.2242 66.5417 60.7001 66.4118V56.3734C62.9322 56.1186 65.0222 55.0646 66.552 53.3923C68.3211 51.4586 69.2021 48.8522 68.9694 46.2418ZM53.3263 36.2981H65.963L66.6727 44.2556H52.6167L53.3263 36.2981ZM60.9526 68.8087L62.48 69.8889H56.8091L58.3365 68.8089C58.7212 68.5369 59.1735 68.3931 59.6445 68.3931C60.1156 68.3931 60.5679 68.5368 60.9526 68.8087ZM64.9945 51.9675C63.6043 53.4872 61.7043 54.3242 59.6445 54.3242C57.5848 54.3242 55.6848 53.4872 54.2946 51.9675C52.9044 50.4478 52.2395 48.481 52.4226 46.4294L52.4282 46.3667H66.8609L66.8665 46.4294C67.0496 48.481 66.3847 50.4478 64.9945 51.9675Z" fill="#EC3892"/>
<path d="M43.1926 26.7161C41.3385 24.4716 40.3171 21.6321 40.3171 18.7204V13.456H40.4589C41.5743 13.456 42.4817 12.5485 42.4817 11.4331V9.92756C42.4817 8.97033 41.8128 8.16806 40.9181 7.95923V2.44575C40.9181 1.09716 39.8211 0 38.4725 0H33.527C32.1784 0 31.0813 1.09716 31.0813 2.44575V7.95937C30.1868 8.1682 29.5178 8.97047 29.5178 9.92756V11.4331C29.5178 12.5485 30.4253 13.456 31.5407 13.456H31.6824V18.7204C31.6824 21.6319 30.6611 24.4716 28.8067 26.7162C26.6403 29.3383 25.4473 32.6554 25.4473 36.0565C25.4473 36.6394 25.9198 37.1121 26.5028 37.1121C27.0858 37.1121 27.5583 36.6394 27.5583 36.0565C27.5583 33.145 28.5797 30.3054 30.4341 28.0607C32.6004 25.4386 33.7935 22.1216 33.7935 18.7204V13.456H38.2059V18.7204C38.2059 22.1217 39.399 25.4389 41.5653 28.0607C43.4199 30.3054 44.4411 33.145 44.4411 36.0565V40.5761H34.5059C33.2067 40.5761 32.1496 41.6332 32.1496 42.9324V53.9357C32.1496 55.235 33.2067 56.292 34.5059 56.292H44.4411V60.5077C44.4411 61.0906 44.9136 61.5632 45.4966 61.5632C46.0796 61.5632 46.5521 61.0906 46.5521 60.5077V36.0565C46.5521 32.6554 45.3591 29.3382 43.1926 26.7161ZM33.527 2.1112H38.4725C38.657 2.1112 38.8071 2.26125 38.8071 2.44575V7.90467H33.1925V2.44575H33.1923C33.1923 2.26125 33.3424 2.1112 33.527 2.1112ZM31.629 11.3448V10.0157H40.3705V11.3448H31.629ZM44.4412 54.1808H34.5061C34.3708 54.1808 34.2608 54.0709 34.2608 53.9356V42.9322C34.2608 42.7971 34.3708 42.687 34.5061 42.687H44.4412V54.1808Z" fill="#EC3892"/>
<path d="M45.4966 64.3635C44.9136 64.3635 44.4411 64.8361 44.4411 65.419V67.9296C44.4411 68.9604 43.6025 69.7989 42.5717 69.7989H29.4277C28.3969 69.7989 27.5583 68.9604 27.5583 67.9296V40.9774C27.5583 40.3945 27.0858 39.9219 26.5028 39.9219C25.9198 39.9219 25.4473 40.3945 25.4473 40.9774V67.9296C25.4473 70.1245 27.2329 71.9101 29.4277 71.9101H42.5717C44.7666 71.9101 46.5521 70.1245 46.5521 67.9296V65.419C46.5521 64.836 46.0796 64.3635 45.4966 64.3635Z" fill="#EC3892"/>
</svg>
